<svg width="33" height="33" viewBox="0 0 94 25" fill="none" xmlns="http://www.w3.org/2000/svg">
<path d="M12.5122 14.0625L13.2065 9.53809H8.86523V6.60205C8.86523 5.36426 9.47168 4.15771 11.416 4.15771H13.3896V0.305664C13.3896 0.305664 11.5986 0 9.88623 0C6.31104 0 3.97412 2.16699 3.97412 6.08984V9.53809H0V14.0625H3.97412V25H8.86523V14.0625H12.5122Z" fill="black" fill-opacity="0.6"/>
<path d="M43.5028 6.09032C39.9557 6.09032 37.0945 8.95208 37.0945 12.5C37.0945 16.0479 39.9557 18.9097 43.5028 18.9097C47.0499 18.9097 49.911 16.0479 49.911 12.5C49.911 8.95208 47.0499 6.09032 43.5028 6.09032ZM43.5028 16.6671C41.2105 16.6671 39.3366 14.7983 39.3366 12.5C39.3366 10.2017 41.205 8.33287 43.5028 8.33287C45.8006 8.33287 47.669 10.2017 47.669 12.5C47.669 14.7983 45.795 16.6671 43.5028 16.6671V16.6671ZM51.6679 5.82813C51.6679 6.65932 50.9986 7.32316 50.1732 7.32316C49.3422 7.32316 48.6785 6.65374 48.6785 5.82813C48.6785 5.00251 49.3477 4.33309 50.1732 4.33309C50.9986 4.33309 51.6679 5.00251 51.6679 5.82813ZM55.9122 7.34548C55.8173 5.3428 55.36 3.56884 53.8932 2.10727C52.432 0.64571 50.6584 0.188274 48.6562 0.0878612C46.5926 -0.0292871 40.4074 -0.0292871 38.3438 0.0878612C36.3472 0.182696 34.5736 0.640132 33.1068 2.1017C31.64 3.56326 31.1882 5.33722 31.0878 7.3399C30.9707 9.40394 30.9707 15.5905 31.0878 17.6545C31.1827 19.6572 31.64 21.4312 33.1068 22.8927C34.5736 24.3543 36.3416 24.8117 38.3438 24.9121C40.4074 25.0293 46.5926 25.0293 48.6562 24.9121C50.6584 24.8173 52.432 24.3599 53.8932 22.8927C55.3544 21.4312 55.8118 19.6572 55.9122 17.6545C56.0293 15.5905 56.0293 9.40952 55.9122 7.34548V7.34548ZM53.2462 19.8692C52.8112 20.9626 51.969 21.8049 50.8703 22.2456C49.225 22.8983 45.321 22.7477 43.5028 22.7477C41.6846 22.7477 37.775 22.8927 36.1352 22.2456C35.0421 21.8105 34.1999 20.9681 33.7593 19.8692C33.1068 18.2235 33.2574 14.3186 33.2574 12.5C33.2574 10.6814 33.1124 6.77089 33.7593 5.13082C34.1944 4.03743 35.0365 3.19508 36.1352 2.75438C37.7805 2.1017 41.6846 2.25231 43.5028 2.25231C45.321 2.25231 49.2306 2.10727 50.8703 2.75438C51.9635 3.1895 52.8056 4.03185 53.2462 5.13082C53.8988 6.77647 53.7482 10.6814 53.7482 12.5C53.7482 14.3186 53.8988 18.2291 53.2462 19.8692Z" fill="black" fill-opacity="0.6"/>
<path d="M91.4303 6.23045C91.4461 6.50387 91.4461 6.77735 91.4461 7.05078C91.4461 15.3906 86.2907 25 76.868 25C73.9651 25 71.2684 23.9648 69 22.168C69.4125 22.2266 69.809 22.2461 70.2373 22.2461C72.6326 22.2461 74.8376 21.25 76.5984 19.5508C74.3458 19.4922 72.4581 17.6758 71.8077 15.1758C72.125 15.2343 72.4422 15.2734 72.7754 15.2734C73.2354 15.2734 73.6955 15.1953 74.1238 15.0586C71.776 14.4726 70.0152 11.9336 70.0152 8.86718V8.78908C70.6973 9.25783 71.4905 9.5508 72.3312 9.58981C70.9511 8.45698 70.0469 6.52341 70.0469 4.33589C70.0469 3.16404 70.3007 2.08982 70.7449 1.15231C73.2671 4.98044 77.0584 7.48039 81.3096 7.75388C81.2303 7.28513 81.1827 6.79689 81.1827 6.3086C81.1827 2.832 83.467 0 86.3065 0C87.7817 0 89.1142 0.761717 90.0501 1.99219C91.2081 1.71876 92.3185 1.19139 93.3021 0.468753C92.9213 1.93363 92.1123 3.1641 91.0495 3.9453C92.0806 3.80864 93.08 3.457 94 2.96877C93.3021 4.21872 92.4296 5.33196 91.4303 6.23045V6.23045Z" fill="black" fill-opacity="0.6"/>
</svg>
