<svg width="140" height="19" viewBox="0 0 140 19" fill="none" xmlns="http://www.w3.org/2000/svg">
<path d="M0.436156 1.2V18H11.2362V14.52H4.49216V1.2H0.436156ZM16.4824 14.76H25.3624L25.0984 11.664H16.7704L16.4824 14.76ZM20.8744 7.368L23.2504 12.816L23.1064 13.848L25.1224 18H29.7304L20.8744 0.144L12.0424 18H16.6264L18.7144 13.68L18.5224 12.792L20.8744 7.368ZM35.6908 10.392L40.3948 18H45.1468L39.8908 10.392H35.6908ZM31.4908 1.2V18H35.5468V1.2H31.4908ZM34.0348 4.632H37.3228C37.8668 4.632 38.3308 4.72 38.7148 4.896C39.1148 5.072 39.4188 5.328 39.6268 5.664C39.8348 5.984 39.9388 6.376 39.9388 6.84C39.9388 7.304 39.8348 7.704 39.6268 8.04C39.4188 8.36 39.1148 8.608 38.7148 8.784C38.3308 8.944 37.8668 9.024 37.3228 9.024H34.0348V12.168H37.6108C39.0508 12.168 40.2508 11.936 41.2108 11.472C42.1708 11.008 42.8988 10.368 43.3948 9.552C43.8908 8.72 44.1388 7.768 44.1388 6.696C44.1388 5.608 43.8908 4.656 43.3948 3.84C42.8988 3.008 42.1708 2.36 41.2108 1.896C40.2508 1.432 39.0508 1.2 37.6108 1.2H34.0348V4.632ZM49.6699 14.76H58.5499L58.2859 11.664H49.9579L49.6699 14.76ZM54.0619 7.368L56.4379 12.816L56.2939 13.848L58.3099 18H62.9179L54.0619 0.144L45.2299 18H49.8139L51.9019 13.68L51.7099 12.792L54.0619 7.368ZM67.3663 4.68H74.8783V1.2H67.3663V4.68ZM67.3663 11.256H74.6383V7.992H67.3663V11.256ZM64.6783 1.2V18H68.5663V1.2H64.6783Z" fill="#FFE600"/>
<path d="M83.4593 4.824H88.0673V18H92.1233V4.824H96.7553V1.2H83.4593V4.824ZM101.458 18.24C102.866 18.24 104.058 17.968 105.034 17.424C106.026 16.88 106.81 16.064 107.386 14.976L104.146 14.184C103.874 14.664 103.506 15.024 103.042 15.264C102.594 15.504 102.05 15.624 101.41 15.624C100.85 15.624 100.378 15.504 99.9938 15.264C99.6098 15.008 99.3218 14.64 99.1298 14.16C98.9378 13.68 98.8418 13.104 98.8418 12.432C98.8578 11.696 98.9538 11.088 99.1298 10.608C99.3218 10.112 99.6018 9.744 99.9698 9.504C100.338 9.264 100.794 9.144 101.338 9.144C101.77 9.144 102.146 9.24 102.466 9.432C102.786 9.624 103.034 9.896 103.21 10.248C103.386 10.6 103.474 11.016 103.474 11.496C103.474 11.608 103.442 11.752 103.378 11.928C103.33 12.088 103.266 12.224 103.186 12.336L104.05 11.232H97.2338V13.248H107.314C107.346 13.136 107.362 13 107.362 12.84C107.362 12.664 107.362 12.488 107.362 12.312C107.362 11.128 107.13 10.12 106.666 9.288C106.202 8.456 105.53 7.824 104.65 7.392C103.77 6.944 102.69 6.72 101.41 6.72C100.13 6.72 99.0178 6.952 98.0738 7.416C97.1458 7.88 96.4338 8.544 95.9378 9.408C95.4418 10.272 95.1938 11.296 95.1938 12.48C95.1938 13.648 95.4498 14.664 95.9618 15.528C96.4738 16.392 97.1938 17.064 98.1218 17.544C99.0658 18.008 100.178 18.24 101.458 18.24ZM112.408 14.544C112.408 14.272 112.472 14.048 112.6 13.872C112.728 13.68 112.92 13.536 113.176 13.44C113.432 13.344 113.776 13.296 114.208 13.296C114.768 13.296 115.296 13.376 115.792 13.536C116.304 13.68 116.752 13.896 117.136 14.184V12.576C116.944 12.368 116.656 12.168 116.272 11.976C115.888 11.784 115.424 11.624 114.88 11.496C114.352 11.368 113.752 11.304 113.08 11.304C111.704 11.304 110.64 11.616 109.888 12.24C109.136 12.848 108.76 13.68 108.76 14.736C108.76 15.488 108.936 16.128 109.288 16.656C109.656 17.184 110.136 17.584 110.728 17.856C111.336 18.112 111.992 18.24 112.696 18.24C113.4 18.24 114.056 18.12 114.664 17.88C115.272 17.624 115.768 17.256 116.152 16.776C116.536 16.28 116.728 15.68 116.728 14.976L116.344 13.536C116.344 14.048 116.232 14.48 116.008 14.832C115.784 15.184 115.496 15.448 115.144 15.624C114.792 15.8 114.408 15.888 113.992 15.888C113.704 15.888 113.44 15.84 113.2 15.744C112.96 15.632 112.768 15.48 112.624 15.288C112.48 15.08 112.408 14.832 112.408 14.544ZM110.8 10.344C110.96 10.248 111.216 10.128 111.568 9.984C111.92 9.824 112.328 9.688 112.792 9.576C113.272 9.464 113.76 9.408 114.256 9.408C114.592 9.408 114.888 9.44 115.144 9.504C115.416 9.568 115.64 9.672 115.816 9.816C115.992 9.96 116.12 10.136 116.2 10.344C116.296 10.536 116.344 10.768 116.344 11.04V18H119.824V10.224C119.824 9.456 119.6 8.808 119.152 8.28C118.704 7.752 118.096 7.352 117.328 7.08C116.56 6.792 115.688 6.648 114.712 6.648C113.672 6.648 112.712 6.784 111.832 7.056C110.952 7.328 110.2 7.616 109.576 7.92L110.8 10.344ZM139.385 10.896C139.385 10 139.273 9.24 139.049 8.616C138.825 7.992 138.457 7.52 137.945 7.2C137.449 6.864 136.769 6.696 135.905 6.696C135.153 6.696 134.481 6.856 133.889 7.176C133.297 7.496 132.801 7.944 132.401 8.52C132.177 7.928 131.809 7.48 131.297 7.176C130.785 6.856 130.097 6.696 129.233 6.696C128.481 6.696 127.833 6.864 127.289 7.2C126.761 7.536 126.345 8 126.041 8.592V6.96H122.537V18H126.041V11.28C126.041 10.832 126.105 10.456 126.233 10.152C126.377 9.848 126.569 9.624 126.809 9.48C127.065 9.32 127.353 9.24 127.673 9.24C128.169 9.24 128.521 9.416 128.729 9.768C128.953 10.104 129.065 10.608 129.065 11.28V18H132.713V11.28C132.713 10.832 132.777 10.456 132.905 10.152C133.049 9.848 133.241 9.624 133.481 9.48C133.737 9.32 134.025 9.24 134.345 9.24C134.841 9.24 135.193 9.416 135.401 9.768C135.625 10.104 135.737 10.608 135.737 11.28V18H139.385V10.896Z" fill="white"/>
</svg>
