<svg width="355" height="48" viewBox="0 0 355 48" fill="none" xmlns="http://www.w3.org/2000/svg">
<path d="M26.8359 48C25.7734 48 24.7031 47.75 23.625 47.25C22.5469 46.7656 21.3828 46.0703 20.1328 45.1641C18.9922 44.3672 17.8594 43.4922 16.7344 42.5391C14.0938 40.3516 11.6797 38.8047 9.49219 37.8984C8.22656 37.3672 6.86719 37.1016 5.41406 37.1016H4.875C4.78125 37.1016 4.59375 37.1172 4.3125 37.1484L11.4609 3.89062C9.30469 4.78125 7.64844 6.10938 6.49219 7.875C5.33594 9.625 4.75781 11.7812 4.75781 14.3438C4.75781 15.3281 4.86719 16.1328 5.08594 16.7578C5.14844 16.9609 5.22656 17.1406 5.32031 17.2969C5.38281 17.4062 5.41406 17.5156 5.41406 17.625C3.67969 17.625 2.41406 17.2734 1.61719 16.5703C0.726562 15.8203 0.28125 14.6172 0.28125 12.9609C0.28125 11.9141 0.507812 10.8828 0.960938 9.86719C1.41406 8.83594 2.05469 7.84375 2.88281 6.89062C3.67969 5.96875 4.61719 5.11719 5.69531 4.33594C6.78906 3.53906 7.96094 2.85156 9.21094 2.27344C11.8672 1.07031 14.5078 0.46875 17.1328 0.46875C17.7109 0.46875 18.3516 0.507813 19.0547 0.585938L11.6719 35.0391C12.4375 35.2109 13.2109 35.4688 13.9922 35.8125C14.7891 36.1562 15.6953 36.6016 16.7109 37.1484L19.3359 38.5547C21.3672 39.6641 23.2031 40.4297 24.8438 40.8516C25.7812 41.1016 26.7656 41.2266 27.7969 41.2266C29.25 41.2266 30.5938 40.9688 31.8281 40.4531C31.5469 42.7969 30.9766 44.6328 30.1172 45.9609C29.6953 46.6172 29.2031 47.1172 28.6406 47.4609C28.0938 47.8203 27.4922 48 26.8359 48ZM40.4006 41.4609C39.5256 41.4609 38.76 41.4219 38.1038 41.3438C37.4475 41.2656 36.8303 41.0781 36.2522 40.7812C34.7366 40.0469 33.9788 38.5781 33.9788 36.375C33.9788 35.3125 34.1428 34.0391 34.4709 32.5547C34.8147 31.0703 35.2991 29.4688 35.9241 27.75C37.2991 23.9688 39.0022 20.3359 41.0334 16.8516C39.4397 16.9453 38.1741 17.1875 37.2366 17.5781C36.3147 17.9531 35.7053 18.5391 35.4084 19.3359C35.5491 19.3359 35.6897 19.5 35.8303 19.8281C35.9709 20.1562 36.0413 20.4922 36.0413 20.8359C36.0413 21.3984 35.7834 21.8516 35.2678 22.1953C34.7522 22.5391 34.1116 22.7109 33.3459 22.7109C32.4866 22.7109 31.7834 22.4766 31.2366 22.0078C30.6584 21.5234 30.3694 20.8281 30.3694 19.9219C30.3694 19.125 30.6116 18.3672 31.0959 17.6484C31.5803 16.9141 32.2678 16.2812 33.1584 15.75C34.0647 15.2031 35.1116 14.7812 36.2991 14.4844C37.5022 14.1719 38.7913 14.0156 40.1663 14.0156C40.8381 14.0156 41.6741 14.0625 42.6741 14.1562C45.3616 9.92188 48.0491 6.60156 50.7366 4.19531C53.8616 1.39844 56.7366 0 59.3616 0C60.9241 0 62.1897 0.226563 63.1584 0.679688L55.635 36H48.7209L52.4006 18.5859C51.2444 18.0547 50.1584 17.6562 49.1428 17.3906C48.1428 17.125 47.0881 16.9453 45.9788 16.8516C44.1663 20.7734 42.6819 24.7812 41.5256 28.875C40.3381 32.9844 39.7444 36.2891 39.7444 38.7891C39.7444 40.0234 39.9631 40.9141 40.4006 41.4609ZM55.635 3.39844C54.2444 4.14844 52.7834 5.5625 51.2522 7.64062C49.7522 9.70312 48.3303 12.0859 46.9866 14.7891C49.1741 15.2109 51.1272 15.7656 52.8459 16.4531L55.635 3.39844ZM94.6997 36.8203C93.3091 36.8203 92.3013 36.4688 91.6763 35.7656C91.1919 35.2344 90.9497 34.5156 90.9497 33.6094C90.9497 32.8906 91.0591 32.0625 91.2778 31.125C91.4966 30.1719 91.8169 28.9453 92.2388 27.4453C92.6606 25.9297 92.9731 24.6797 93.1763 23.6953C93.395 22.7109 93.5044 21.8047 93.5044 20.9766C93.5044 19.9609 93.2934 19.1719 92.8716 18.6094C92.4028 18.0156 91.6528 17.7188 90.6216 17.7188C90.0434 17.7188 89.5122 17.7812 89.0278 17.9062L85.1841 36H78.2934L84.8091 5.46094L91.9106 4.52344L89.5669 15.6094H89.9419C90.895 15.6094 91.7934 15.3594 92.6372 14.8594C93.4809 14.3438 94.2231 13.6562 94.8638 12.7969C95.4575 11.9844 95.9184 11.0859 96.2466 10.1016C96.5903 9.11719 96.7622 8.16406 96.7622 7.24219C96.7622 6.55469 96.6528 5.90625 96.4341 5.29688C96.2309 4.6875 95.9263 4.15625 95.52 3.70312C94.5981 2.70312 93.2544 2.20312 91.4888 2.20312C89.5356 2.20312 87.7622 2.46875 86.1684 3C84.5903 3.51562 83.2309 4.28125 82.0903 5.29688C80.9341 6.3125 80.0513 7.54688 79.4419 9C78.8325 10.4531 78.5278 12.0781 78.5278 13.875C78.5278 14.875 78.6372 15.6719 78.8559 16.2656C78.9184 16.4688 78.9966 16.6484 79.0903 16.8047C79.1528 16.9141 79.1841 17.0234 79.1841 17.1328C77.4497 17.1328 76.1841 16.7891 75.3872 16.1016C74.4966 15.3516 74.0513 14.1406 74.0513 12.4688C74.0513 11.4219 74.2778 10.3906 74.7309 9.375C75.1841 8.34375 75.8247 7.35156 76.6528 6.39844C77.4341 5.49219 78.3638 4.64844 79.4419 3.86719C80.5356 3.07031 81.7153 2.38281 82.9809 1.80469C85.6372 0.601563 88.2778 0 90.9028 0C92.7153 0 94.3091 0.210938 95.6841 0.632812C97.0747 1.03906 98.2388 1.61719 99.1763 2.36719C100.051 3.07031 100.708 3.88281 101.145 4.80469C101.583 5.71094 101.801 6.67188 101.801 7.6875C101.801 9.21875 101.356 10.7031 100.465 12.1406C99.4653 13.7344 98.1841 14.9844 96.6216 15.8906C97.8559 16.2656 98.7231 16.8672 99.2231 17.6953C99.6919 18.4922 99.9263 19.4922 99.9263 20.6953C99.9263 21.5859 99.8247 22.5391 99.6216 23.5547C99.4184 24.5547 99.1294 25.7422 98.7544 27.1172C98.3325 28.6484 98.0278 29.8203 97.8403 30.6328C97.6684 31.4297 97.5825 32.1641 97.5825 32.8359C97.5825 33.5859 97.7466 34.25 98.0747 34.8281C98.4184 35.3906 98.8794 35.7812 99.4575 36C97.5356 36.5469 95.9497 36.8203 94.6997 36.8203ZM124.858 41.4609C123.983 41.4609 123.217 41.4219 122.561 41.3438C121.905 41.2656 121.288 41.0781 120.71 40.7812C119.194 40.0469 118.436 38.5781 118.436 36.375C118.436 35.3125 118.6 34.0391 118.928 32.5547C119.272 31.0703 119.757 29.4688 120.382 27.75C121.757 23.9688 123.46 20.3359 125.491 16.8516C123.897 16.9453 122.632 17.1875 121.694 17.5781C120.772 17.9531 120.163 18.5391 119.866 19.3359C120.007 19.3359 120.147 19.5 120.288 19.8281C120.428 20.1562 120.499 20.4922 120.499 20.8359C120.499 21.3984 120.241 21.8516 119.725 22.1953C119.21 22.5391 118.569 22.7109 117.803 22.7109C116.944 22.7109 116.241 22.4766 115.694 22.0078C115.116 21.5234 114.827 20.8281 114.827 19.9219C114.827 19.125 115.069 18.3672 115.553 17.6484C116.038 16.9141 116.725 16.2812 117.616 15.75C118.522 15.2031 119.569 14.7812 120.757 14.4844C121.96 14.1719 123.249 14.0156 124.624 14.0156C125.296 14.0156 126.132 14.0625 127.132 14.1562C129.819 9.92188 132.507 6.60156 135.194 4.19531C138.319 1.39844 141.194 0 143.819 0C145.382 0 146.647 0.226563 147.616 0.679688L140.092 36H133.178L136.858 18.5859C135.702 18.0547 134.616 17.6562 133.6 17.3906C132.6 17.125 131.546 16.9453 130.436 16.8516C128.624 20.7734 127.139 24.7812 125.983 28.875C124.796 32.9844 124.202 36.2891 124.202 38.7891C124.202 40.0234 124.421 40.9141 124.858 41.4609ZM140.092 3.39844C138.702 4.14844 137.241 5.5625 135.71 7.64062C134.21 9.70312 132.788 12.0859 131.444 14.7891C133.632 15.2109 135.585 15.7656 137.303 16.4531L140.092 3.39844ZM169.36 3.9375C168.376 3.96875 167.509 4.15625 166.759 4.5C166.024 4.82812 165.392 5.35156 164.86 6.07031C163.704 7.64844 163.126 10.25 163.126 13.875C163.126 14.9062 163.243 15.7031 163.478 16.2656C163.54 16.4688 163.618 16.6484 163.712 16.8047C163.774 16.9141 163.806 17.0234 163.806 17.1328C162.087 17.1328 160.813 16.7891 159.985 16.1016C159.095 15.3516 158.649 14.1406 158.649 12.4688C158.649 10.8125 158.954 9.24219 159.563 7.75781C160.188 6.27344 161.134 4.96875 162.399 3.84375C163.759 2.625 165.485 1.67969 167.579 1.00781C169.688 0.335937 172.173 0 175.032 0C175.579 0 176.126 0.03125 176.673 0.09375L177.892 0.210938C179.345 0.367188 180.29 0.460938 180.728 0.492188C181.399 0.554688 182.157 0.585938 183.001 0.585938C184.704 0.585938 186.142 0.390625 187.313 0C187.173 0.40625 187.024 0.945312 186.868 1.61719C186.524 2.96094 185.884 4.02344 184.946 4.80469C184.399 5.25781 183.673 5.57812 182.767 5.76562C180.829 5.76562 178.587 5.46094 176.04 4.85156L174.024 14.3906H181.032L180.259 17.9531H173.251L169.36 36H162.446L169.36 3.9375Z" fill="#E1F782"/>
<path d="M228.529 4.21875H227.966C225.122 4.21875 222.982 4.86719 221.544 6.16406C219.81 7.72656 218.943 10.3125 218.943 13.9219C218.943 14.9219 219.052 15.7188 219.271 16.3125C219.333 16.5156 219.412 16.6953 219.505 16.8516C219.568 16.9609 219.599 17.0703 219.599 17.1797C217.865 17.1797 216.599 16.8359 215.802 16.1484C214.912 15.3984 214.466 14.1953 214.466 12.5391C214.466 10.8828 214.771 9.3125 215.38 7.82812C216.005 6.32812 216.951 5.01562 218.216 3.89062C219.576 2.67188 221.302 1.72656 223.396 1.05469C225.505 0.382812 227.99 0.046875 230.849 0.046875C232.49 0.046875 234.06 0.140625 235.56 0.328125C236.029 0.375 236.638 0.460938 237.388 0.585938C238.638 0.820312 239.841 0.976563 240.997 1.05469C241.56 1.11719 242.271 1.14844 243.13 1.14844C244.193 1.14844 245.208 1.05469 246.177 0.867188C247.146 0.679688 247.99 0.4375 248.708 0.140625C248.63 2.23437 248.091 3.77344 247.091 4.75781C246.107 5.74219 244.646 6.23438 242.708 6.23438C241.662 6.23438 240.607 6.14844 239.544 5.97656C238.482 5.80469 237.052 5.53906 235.255 5.17969L228.622 36H221.732L228.529 4.21875ZM255.922 36.2812C253.562 36.2812 251.742 35.6875 250.461 34.5C249.101 33.2344 248.422 31.2891 248.422 28.6641C248.422 27.6797 248.523 26.5859 248.726 25.3828C248.914 24.1797 249.203 22.9766 249.593 21.7734C250.031 20.4297 250.586 19.1562 251.258 17.9531C251.945 16.75 252.742 15.6875 253.648 14.7656C255.742 12.6406 258.32 11.5781 261.383 11.5781C263.336 11.5781 264.758 12.0469 265.648 12.9844C266.336 13.7188 266.679 14.7812 266.679 16.1719C266.679 17.5312 266.383 18.8125 265.789 20.0156C265.195 21.2031 264.375 22.2578 263.328 23.1797C262.281 24.0859 261.093 24.8125 259.765 25.3594C258.437 25.8906 257.062 26.2031 255.64 26.2969C255.562 27.1094 255.523 27.75 255.523 28.2188C255.523 29.7812 255.82 30.8594 256.414 31.4531C256.929 31.9844 257.789 32.25 258.992 32.25C260.726 32.25 262.312 31.7812 263.75 30.8438C264.359 30.4531 264.945 29.9922 265.508 29.4609C266.07 28.9141 266.726 28.2266 267.476 27.3984H269.117C267.601 29.9609 265.859 32 263.89 33.5156C261.468 35.3594 258.812 36.2812 255.922 36.2812ZM256.015 24C256.906 23.9375 257.773 23.6797 258.617 23.2266C259.461 22.7734 260.211 22.1797 260.867 21.4453C261.523 20.6953 262.039 19.8594 262.414 18.9375C262.789 18 262.976 17.0469 262.976 16.0781C262.976 15.4375 262.883 14.9531 262.695 14.625C262.523 14.2812 262.218 14.1094 261.781 14.1094C261.203 14.1094 260.617 14.3906 260.023 14.9531C259.445 15.5156 258.883 16.2891 258.336 17.2734C257.836 18.1953 257.383 19.2422 256.976 20.4141C256.57 21.5859 256.25 22.7812 256.015 24ZM285.002 36.2812C283.174 36.2812 281.697 35.7109 280.572 34.5703C279.26 33.2266 278.603 31.2266 278.603 28.5703C278.603 27.4453 278.721 26.2578 278.955 25.0078C279.174 23.7578 279.502 22.5234 279.939 21.3047C280.939 18.5547 282.307 16.3359 284.041 14.6484C286.041 12.7266 288.346 11.7656 290.955 11.7656C292.252 11.7656 293.221 11.9922 293.861 12.4453C294.518 12.8828 294.846 13.4688 294.846 14.2031V14.5547L295.361 12H302.275L298.83 28.3125C298.689 28.7812 298.619 29.2969 298.619 29.8594C298.619 31.2344 299.275 31.9219 300.588 31.9219C301.463 31.9219 302.26 31.4766 302.978 30.5859C303.588 29.8359 304.088 28.7734 304.478 27.3984H306.494C305.635 29.8359 304.596 31.7656 303.377 33.1875C302.346 34.3594 301.182 35.2031 299.885 35.7188C298.932 36.0938 297.924 36.2812 296.861 36.2812C295.502 36.2812 294.416 35.9141 293.603 35.1797C292.807 34.4297 292.322 33.3281 292.15 31.875C291.244 33.1562 290.291 34.1562 289.291 34.875C288.01 35.8125 286.58 36.2812 285.002 36.2812ZM288.119 31.6406C288.478 31.6406 288.853 31.5469 289.244 31.3594C289.65 31.1719 290.041 30.9062 290.416 30.5625C291.26 29.75 291.822 28.6953 292.103 27.3984L294.4 16.5703C294.4 16.4141 294.361 16.2344 294.283 16.0312C294.221 15.8125 294.127 15.6094 294.002 15.4219C293.627 14.9688 293.103 14.7422 292.432 14.7422C291.791 14.7422 291.166 14.9531 290.557 15.375C289.963 15.7969 289.4 16.3828 288.869 17.1328C287.932 18.4922 287.158 20.2656 286.549 22.4531C286.268 23.4219 286.057 24.3828 285.916 25.3359C285.775 26.2734 285.705 27.125 285.705 27.8906C285.705 29.4844 286.002 30.5625 286.596 31.125C286.799 31.3438 287.025 31.4844 287.275 31.5469C287.525 31.6094 287.807 31.6406 288.119 31.6406ZM345.442 36.2812C343.457 36.2812 341.988 35.7188 341.035 34.5938C340.207 33.625 339.793 32.3828 339.793 30.8672C339.793 30.1484 339.879 29.3125 340.051 28.3594C340.238 27.4062 340.512 26.1797 340.871 24.6797C341.231 23.1484 341.496 21.9297 341.668 21.0234C341.856 20.1016 341.949 19.3047 341.949 18.6328C341.949 16.9922 341.371 16.1719 340.215 16.1719C339.402 16.1719 338.652 16.6016 337.965 17.4609C337.387 18.1953 336.887 19.2422 336.465 20.6016L333.207 36H326.293L329.809 19.4297C329.902 19.0547 329.949 18.6562 329.949 18.2344C329.949 17.5938 329.848 17.1016 329.645 16.7578C329.379 16.3359 328.996 16.125 328.496 16.125C327.59 16.125 326.801 16.5625 326.129 17.4375C325.535 18.1875 325.027 19.2422 324.606 20.6016L321.348 36H314.434L319.52 12H326.434L325.918 14.4844C326.856 13.4375 327.879 12.6953 328.988 12.2578C329.863 11.9297 330.793 11.7656 331.777 11.7656C333.121 11.7656 334.192 12.0781 334.988 12.7031C335.879 13.4062 336.449 14.4688 336.699 15.8906C337.731 14.2969 338.918 13.1719 340.262 12.5156C341.215 12.0469 342.254 11.8125 343.379 11.8125C344.988 11.8125 346.262 12.2344 347.199 13.0781C348.199 14 348.699 15.3828 348.699 17.2266C348.699 18.2734 348.504 19.7188 348.113 21.5625C347.957 22.3281 347.77 23.1016 347.551 23.8828C347.16 25.3828 346.84 26.7656 346.59 28.0312C346.465 28.6875 346.402 29.2188 346.402 29.625C346.402 30.2656 346.543 30.7656 346.824 31.125C347.121 31.4688 347.621 31.6406 348.324 31.6406C349.277 31.6406 350.082 31.25 350.738 30.4688C351.238 29.875 351.777 28.8516 352.356 27.3984H354.371C353.184 30.9141 351.684 33.375 349.871 34.7812C348.59 35.7812 347.113 36.2812 345.442 36.2812Z" fill="#262322"/>
</svg>
