<svg width="39" height="38" viewBox="0 0 39 38" fill="none" xmlns="http://www.w3.org/2000/svg">
<path d="M0.218628 16.6015V36.7002C0.218628 37.3535 0.641884 37.8825 1.16445 37.8825H5.89357V14.2369H2.11028C1.06573 14.2369 0.218628 15.2958 0.218628 16.6015ZM21.4997 13.0546H20.0809V10.0989C20.0809 9.77234 19.8693 9.50781 19.608 9.50781H18.6622C18.4009 9.50781 18.1893 9.77234 18.1893 10.0989V14.8281C18.1893 15.1547 18.4009 15.4192 18.6622 15.4192H21.4997C21.761 15.4192 21.9726 15.1547 21.9726 14.8281V13.6458C21.9726 13.3192 21.761 13.0546 21.4997 13.0546ZM29.6426 8.32848L20.1844 0.44637C19.8736 0.187621 19.5085 0.0495605 19.1351 0.0495605C18.7617 0.0495605 18.3966 0.187621 18.0858 0.44637L8.62759 8.32848C8.36853 8.54438 8.1561 8.83687 8.00915 9.18C7.86221 9.52313 7.78529 9.9063 7.78522 10.2955V37.8825H15.3518V27.242C15.3518 26.5888 15.7751 26.0597 16.2976 26.0597H21.9726C22.4951 26.0597 22.9184 26.5888 22.9184 27.242V37.8825H30.485V10.2962C30.485 9.50559 30.1687 8.76666 29.6426 8.32848ZM19.1351 18.966C16.5235 18.966 14.406 16.3192 14.406 13.0546C14.406 9.79008 16.5235 7.14325 19.1351 7.14325C21.7468 7.14325 23.8642 9.79008 23.8642 13.0546C23.8642 16.3192 21.7468 18.966 19.1351 18.966ZM36.1599 14.2369H32.3766V37.8825H37.1058C37.6283 37.8825 38.0516 37.3535 38.0516 36.7002V16.6015C38.0516 15.2958 37.2045 14.2369 36.1599 14.2369Z" fill="#FFE600"/>
</svg>
