<svg width="37" height="35" viewBox="0 0 37 35" fill="none" xmlns="http://www.w3.org/2000/svg">
<path d="M10.2135 26.0659L12.4531 23.2673L5.24346 17.5L12.4531 11.7326L10.2135 8.934L1.25521 16.1007C1.04531 16.2685 0.875855 16.4814 0.759406 16.7237C0.642957 16.9659 0.582493 17.2312 0.582493 17.5C0.582493 17.7687 0.642957 18.034 0.759406 18.2763C0.875855 18.5185 1.04531 18.7314 1.25521 18.8992L10.2135 26.0659ZM26.7865 8.934L24.5469 11.7326L31.7565 17.5L24.5469 23.2673L26.7865 26.0659L35.7448 18.8992C35.9547 18.7314 36.1241 18.5185 36.2406 18.2763C36.357 18.034 36.4175 17.7687 36.4175 17.5C36.4175 17.2312 36.357 16.9659 36.2406 16.7237C36.1241 16.4814 35.9547 16.2685 35.7448 16.1007L26.7865 8.934ZM23.832 1.76196L16.6653 34.012L13.1662 33.2344L20.3329 0.984375L23.832 1.76196Z" fill="#FFE600"/>
</svg>
